<svg width="36" height="36" viewBox="0 0 36 36" fill="none" xmlns="http://www.w3.org/2000/svg">
<circle cx="18" cy="18" r="15" fill="#22D081"/>
<path d="M22.0575 19.8563C22.4384 19.4564 22.4229 18.8234 22.023 18.4425C21.6231 18.0616 20.9901 18.0771 20.6092 18.477L21.3334 19.1667L22.0575 19.8563ZM17.2759 21.977C16.895 22.3769 16.9104 23.0099 17.3104 23.3908C17.7103 23.7717 18.3433 23.7563 18.7242 23.3563L18 22.6667L17.2759 21.977ZM17.2759 23.3563C17.6568 23.7563 18.2897 23.7717 18.6897 23.3908C19.0896 23.0099 19.105 22.3769 18.7242 21.977L18 22.6667L17.2759 23.3563ZM15.3908 18.477C15.0099 18.0771 14.377 18.0616 13.977 18.4425C13.5771 18.8234 13.5617 19.4564 13.9425 19.8563L14.6667 19.1667L15.3908 18.477ZM17 22.6667C17 23.219 17.4477 23.6667 18 23.6667C18.5523 23.6667 19 23.219 19 22.6667H18H17ZM19 13.3333C19 12.7811 18.5523 12.3333 18 12.3333C17.4477 12.3333 17 12.7811 17 13.3333H18H19ZM21.3334 19.1667L20.6092 18.477L17.2759 21.977L18 22.6667L18.7242 23.3563L22.0575 19.8563L21.3334 19.1667ZM18 22.6667L18.7242 21.977L15.3908 18.477L14.6667 19.1667L13.9425 19.8563L17.2759 23.3563L18 22.6667ZM18 22.6667H19V13.3333H18H17V22.6667H18Z" fill="white"/>
</svg>
