<svg width="20" height="20" viewBox="0 0 20 20" fill="none" xmlns="http://www.w3.org/2000/svg">
<path d="M12.5 6.45833C12.1548 6.45833 11.875 6.73815 11.875 7.08333C11.875 7.42851 12.1548 7.70833 12.5 7.70833V7.08333V6.45833ZM15.8333 7.70833C16.1785 7.70833 16.4583 7.42851 16.4583 7.08333C16.4583 6.73815 16.1785 6.45833 15.8333 6.45833V7.08333V7.70833ZM16.4583 7.08333C16.4583 6.73815 16.1785 6.45833 15.8333 6.45833C15.4882 6.45833 15.2083 6.73815 15.2083 7.08333H15.8333H16.4583ZM15.2083 10.4167C15.2083 10.7618 15.4882 11.0417 15.8333 11.0417C16.1785 11.0417 16.4583 10.7618 16.4583 10.4167H15.8333H15.2083ZM16.2753 7.52527C16.5194 7.28119 16.5194 6.88546 16.2753 6.64139C16.0312 6.39731 15.6355 6.39731 15.3914 6.64139L15.8333 7.08333L16.2753 7.52527ZM10 12.9167L9.55806 13.3586C9.80214 13.6027 10.1979 13.6027 10.4419 13.3586L10 12.9167ZM7.50001 10.4167L7.94195 9.97472C7.69787 9.73064 7.30214 9.73064 7.05806 9.97472L7.50001 10.4167ZM3.72473 13.3081C3.48065 13.5521 3.48065 13.9479 3.72473 14.1919C3.96881 14.436 4.36454 14.436 4.60861 14.1919L4.16667 13.75L3.72473 13.3081ZM12.5 7.08333V7.70833H15.8333V7.08333V6.45833H12.5V7.08333ZM15.8333 7.08333H15.2083V10.4167H15.8333H16.4583V7.08333H15.8333ZM15.8333 7.08333L15.3914 6.64139L9.55806 12.4747L10 12.9167L10.4419 13.3586L16.2753 7.52527L15.8333 7.08333ZM10 12.9167L10.4419 12.4747L7.94195 9.97472L7.50001 10.4167L7.05806 10.8586L9.55806 13.3586L10 12.9167ZM7.50001 10.4167L7.05806 9.97472L3.72473 13.3081L4.16667 13.75L4.60861 14.1919L7.94195 10.8586L7.50001 10.4167Z" fill="#000000"/>
</svg>
