<svg width="32" height="32" viewBox="0 0 32 32" fill="none" xmlns="http://www.w3.org/2000/svg">
<path fill-rule="evenodd" clip-rule="evenodd" d="M8.75063 22.0833C8.42845 22.4055 8.42845 22.9279 8.75063 23.25C9.07282 23.5722 9.59518 23.5722 9.91736 23.25L9.33399 22.6667L8.75063 22.0833ZM16.584 16.5834C16.9062 16.2612 16.9062 15.7388 16.584 15.4166C16.2618 15.0945 15.7395 15.0945 15.4173 15.4166L16.0007 16L16.584 16.5834ZM15.4173 15.4166C15.0951 15.7388 15.0951 16.2612 15.4173 16.5834C15.7395 16.9056 16.2618 16.9056 16.584 16.5834L16.0007 16L15.4173 15.4166ZM23.2507 9.9167C23.5729 9.59452 23.5729 9.07216 23.2507 8.74998C22.9285 8.42779 22.4062 8.42779 22.084 8.74998L22.6673 9.33334L23.2507 9.9167ZM16.584 15.4166C16.2618 15.0945 15.7395 15.0945 15.4173 15.4166C15.0951 15.7388 15.0951 16.2612 15.4173 16.5834L16.0007 16L16.584 15.4166ZM22.084 23.25C22.4062 23.5722 22.9285 23.5722 23.2507 23.25C23.5729 22.9279 23.5729 22.4055 23.2507 22.0833L22.6673 22.6667L22.084 23.25ZM15.4173 16.5834C15.7395 16.9055 16.2618 16.9055 16.584 16.5834C16.9062 16.2612 16.9062 15.7388 16.584 15.4166L16.0007 16L15.4173 16.5834ZM9.91736 8.74997C9.59518 8.42779 9.07282 8.42779 8.75064 8.74997C8.42845 9.07216 8.42845 9.59452 8.75064 9.9167L9.334 9.33334L9.91736 8.74997ZM9.33399 22.6667L9.91736 23.25L16.584 16.5834L16.0007 16L15.4173 15.4166L8.75063 22.0833L9.33399 22.6667ZM16.0007 16L16.584 16.5834L23.2507 9.9167L22.6673 9.33334L22.084 8.74998L15.4173 15.4166L16.0007 16ZM16.0007 16L15.4173 16.5834L22.084 23.25L22.6673 22.6667L23.2507 22.0833L16.584 15.4166L16.0007 16ZM16.0007 16L16.584 15.4166L9.91736 8.74997L9.334 9.33334L8.75064 9.9167L15.4173 16.5834L16.0007 16Z" fill="#000000"/>
</svg>
