<svg width="200" height="200" viewBox="0 0 200 200" fill="none" xmlns="http://www.w3.org/2000/svg">
<path d="M125 64.5833C121.548 64.5833 118.75 67.3815 118.75 70.8333C118.75 74.2851 121.548 77.0833 125 77.0833V70.8333V64.5833ZM158.333 77.0833C161.785 77.0833 164.583 74.2851 164.583 70.8333C164.583 67.3815 161.785 64.5833 158.333 64.5833V70.8333V77.0833ZM164.583 70.8333C164.583 67.3815 161.785 64.5833 158.333 64.5833C154.882 64.5833 152.083 67.3815 152.083 70.8333H158.333H164.583ZM152.083 104.167C152.083 107.618 154.882 110.417 158.333 110.417C161.785 110.417 164.583 107.618 164.583 104.167H158.333H152.083ZM162.753 75.2527C165.194 72.8119 165.194 68.8546 162.753 66.4139C160.312 63.9731 156.355 63.9731 153.914 66.4139L158.333 70.8333L162.753 75.2527ZM100 129.167L95.5806 133.586C98.0214 136.027 101.979 136.027 104.419 133.586L100 129.167ZM75.0001 104.167L79.4195 99.7472C76.9787 97.3064 73.0214 97.3064 70.5806 99.7472L75.0001 104.167ZM37.2473 133.081C34.8065 135.521 34.8065 139.479 37.2473 141.919C39.6881 144.36 43.6454 144.36 46.0861 141.919L41.6667 137.5L37.2473 133.081ZM125 70.8333V77.0833H158.333V70.8333V64.5833H125V70.8333ZM158.333 70.8333H152.083V104.167H158.333H164.583V70.8333H158.333ZM158.333 70.8333L153.914 66.4139L95.5806 124.747L100 129.167L104.419 133.586L162.753 75.2527L158.333 70.8333ZM100 129.167L104.419 124.747L79.4195 99.7472L75.0001 104.167L70.5806 108.586L95.5806 133.586L100 129.167ZM75.0001 104.167L70.5806 99.7472L37.2473 133.081L41.6667 137.5L46.0861 141.919L79.4195 108.586L75.0001 104.167Z" fill="#22D081"/>
</svg>
